<?xml version="1.0" encoding="UTF-8"?> <!-- Generator: Adobe Illustrator 17.0.0, SVG Export Plug-In . SVG Version: 6.00 Build 0) --> <svg xmlns="http://www.w3.org/2000/svg" xmlns:xlink="http://www.w3.org/1999/xlink" id="Layer_1" x="0px" y="0px" width="300px" height="70px" viewBox="0 0 300 70" xml:space="preserve"> <g> <g> <path fill="#1C75BC" d="M48.662,49.876v-4.395h25.813c2.474,0,3.712-0.915,3.712-2.747v-3.761c0-1.831-1.238-2.747-3.712-2.747 H57.013c-1.687,0-3.121-0.176-4.302-0.528c-1.181-0.352-2.145-0.845-2.889-1.479c-0.745-0.634-1.286-1.387-1.624-2.261 c-0.337-0.873-0.506-1.845-0.506-2.916v-1.733c0-1.042,0.169-2.007,0.506-2.895c0.337-0.888,0.879-1.648,1.624-2.282 c0.745-0.634,1.708-1.126,2.889-1.479c1.181-0.352,2.615-0.528,4.302-0.528h25.138v4.395H57.013c-2.475,0-3.712,0.916-3.712,2.747 v1.817c0,1.832,1.237,2.747,3.712,2.747h17.462c1.687,0,3.121,0.176,4.302,0.528c1.181,0.353,2.144,0.845,2.889,1.479 c0.745,0.634,1.286,1.395,1.624,2.282c0.337,0.887,0.506,1.853,0.506,2.895v3.677c0,1.071-0.169,2.043-0.506,2.916 c-0.337,0.874-0.879,1.627-1.624,2.261c-0.745,0.634-1.708,1.127-2.889,1.479c-1.181,0.353-2.615,0.528-4.302,0.528H48.662z"></path> <path fill="#1C75BC" d="M121.292,49.876l-15.311-23.963L90.418,49.876h-6.242l19.739-29.753h4.091l19.613,29.753H121.292z"></path> <path fill="#1C75BC" d="M139.091,49.876l-19.739-29.753h6.369l15.522,23.963l15.353-23.963h6.2l-19.613,29.753H139.091z"></path> <path fill="#1C75BC" d="M165.748,49.876V20.124h5.61v29.753H165.748z"></path> <path fill="#1C75BC" d="M193.374,49.876V37.789L174.31,20.124h7.17l14.678,13.608l14.678-13.608h7.086l-18.938,17.666v12.087 H193.374z"></path> <path fill="#1C75BC" d="M257.274,49.876l-31.676-23.16v23.16h-4.935V20.124h4.893l29.525,22.103V20.124h4.935v29.753H257.274z"></path> <path fill="#1C75BC" d="M279.248,49.876V24.519h-15.564v-4.395H300v4.395h-15.142v25.357H279.248z"></path> </g> </g> <g> <path fill="#1C75BC" d="M42.46,47.613c-0.557-3.922-2.468-7.916-6.015-12.569c-1.78-2.335-3.763-4.577-5.681-6.746 c-2.597-2.937-5.049-5.711-6.76-8.426c-1.604-2.545-2.357-4.764-2.305-6.784C21.953,3.347,36.852,0.032,37.003,0l-4.329,0.001 C31.527-0.001,28.623,0,25.134,0.004l-2.236,0.001c0,0-0.001,0.001-0.003,0.002C15.245,0.016,6.135,0.032,6.135,0.032L5.969,0.2 c-0.246,0.249-6.03,6.223-5.968,17.53c0.008,1.521,0.126,3.088,0.348,4.657c0.557,3.922,2.468,7.916,6.015,12.569 c1.78,2.335,3.763,4.577,5.681,6.746c2.597,2.937,5.049,5.711,6.76,8.426c1.604,2.545,2.357,4.764,2.305,6.784 C20.856,66.653,5.957,69.968,5.806,70l4.329-0.001c1.147,0.003,4.051,0.001,7.54-0.003l2.236-0.001c0,0,0.001-0.001,0.003-0.002 c7.65-0.009,16.759-0.026,16.759-0.026l0.167-0.168c0.246-0.249,6.03-6.223,5.968-17.53C42.8,50.749,42.683,49.182,42.46,47.613z"></path> </g> </svg> 